<svg xmlns="http://www.w3.org/2000/svg" xmlns:xlink="http://www.w3.org/1999/xlink" width="90" height="90" viewBox="0 0 90 90">
  <defs>
    <filter id="Ellipse_3" x="-9.354" y="-6" width="107.564" height="107.564" filterUnits="userSpaceOnUse">
      <feOffset dy="3" input="SourceAlpha"/>
      <feGaussianBlur stdDeviation="3" result="blur"/>
      <feFlood flood-opacity="0.31"/>
      <feComposite operator="in" in2="blur"/>
      <feComposite in="SourceGraphic"/>
    </filter>
    <clipPath id="clip-path">
      <path id="Path_100" data-name="Path 100" d="M175.14,46.223V11.178l20.341,33.238Z" transform="translate(-175.14 -11.178)" fill="none"/>
    </clipPath>
    <clipPath id="clip-path-2">
      <rect id="Rectangle_23" data-name="Rectangle 23" width="51.377" height="76.541" fill="none"/>
    </clipPath>
    <clipPath id="clip-path-3">
      <path id="Path_102" data-name="Path 102" d="M175.115,20.688l.1,31.5,20.341-33.133Z" transform="translate(-175.115 -19.056)" fill="none"/>
    </clipPath>
    <clipPath id="clip-path-5">
      <path id="Path_104" data-name="Path 104" d="M190.82,46.315V11.178L170.269,44.416Z" transform="translate(-170.269 -11.178)" fill="none"/>
    </clipPath>
    <clipPath id="clip-path-7">
      <path id="Path_106" data-name="Path 106" d="M190.82,20.952V52.189L170.269,19.056Z" transform="translate(-170.269 -19.056)" fill="none"/>
    </clipPath>
    <clipPath id="clip-path-9">
      <path id="Path_110" data-name="Path 110" d="M186,28.13l4.715-4.206,7.309-6.869L201.059,22l-9.114,7.445-2.352,1.99-.391.347,9.841,11.205-2.693,4.037L185.6,34.974l-11.29,10.01-2.555-4.147,10.62-9.475-4.146-4.646-6.262-6.548,2.984-4.736,8.8,10.051,1.99,2.352Z" transform="translate(-171.754 -15.432)" fill="none" clip-rule="evenodd"/>
    </clipPath>
    <clipPath id="clip-BCX_Icon">
      <rect width="90" height="90"/>
    </clipPath>
  </defs>
  <g id="BCX_Icon" clip-path="url(#clip-BCX_Icon)">
    <g id="Group_91" data-name="Group 91" transform="translate(-0.354 0)">
      <g transform="matrix(1, 0, 0, 1, 0.35, 0)" filter="url(#Ellipse_3)">
        <circle id="Ellipse_3-2" data-name="Ellipse 3" cx="44.782" cy="44.782" r="44.782" transform="translate(-0.35)" fill="#4a5c7a" opacity="0.2"/>
      </g>
      <circle id="Ellipse_4" data-name="Ellipse 4" cx="39.558" cy="39.558" r="39.558" transform="translate(5.225 5.225)" fill="#fff"/>
      <g id="Group_90" data-name="Group 90" transform="translate(24.389 11.444)">
        <g id="Group_35" data-name="Group 35" transform="translate(20.551)">
          <g id="Group_34" data-name="Group 34" clip-path="url(#clip-path)">
            <g id="Group_33" data-name="Group 33" transform="translate(-24.745 -2.936)">
              <g id="Group_32" data-name="Group 32" clip-path="url(#clip-path-2)">
                <rect id="Rectangle_22" data-name="Rectangle 22" width="30.58" height="45.284" transform="translate(19.625 -2.184)" fill="#0b203b"/>
              </g>
            </g>
          </g>
        </g>
        <g id="Group_41" data-name="Group 41" transform="translate(20.446 33.238)">
          <g id="Group_40" data-name="Group 40" clip-path="url(#clip-path-3)">
            <g id="Group_39" data-name="Group 39" transform="translate(-24.64 -36.174)">
              <g id="Group_38" data-name="Group 38" clip-path="url(#clip-path-2)">
                <rect id="Rectangle_25" data-name="Rectangle 25" width="30.685" height="43.372" transform="translate(19.52 31.054)" fill="#0b203b"/>
              </g>
            </g>
          </g>
        </g>
        <g id="Group_47" data-name="Group 47">
          <g id="Group_46" data-name="Group 46" clip-path="url(#clip-path-5)">
            <g id="Group_45" data-name="Group 45" transform="translate(-4.194 -2.936)">
              <g id="Group_44" data-name="Group 44" clip-path="url(#clip-path-2)">
                <rect id="Rectangle_28" data-name="Rectangle 28" width="30.79" height="45.376" transform="translate(-0.926 -2.184)" fill="#0f2b52"/>
              </g>
            </g>
          </g>
        </g>
        <g id="Group_53" data-name="Group 53" transform="translate(0 33.238)">
          <g id="Group_52" data-name="Group 52" clip-path="url(#clip-path-7)">
            <g id="Group_51" data-name="Group 51" transform="translate(-4.194 -36.174)">
              <g id="Group_50" data-name="Group 50" clip-path="url(#clip-path-2)">
                <rect id="Rectangle_31" data-name="Rectangle 31" width="30.79" height="43.372" transform="translate(-0.926 31.054)" fill="#0d2852"/>
              </g>
            </g>
          </g>
        </g>
        <g id="Group_65" data-name="Group 65" transform="translate(6.264 17.948)">
          <g id="Group_64" data-name="Group 64" clip-path="url(#clip-path-9)">
            <g id="Group_63" data-name="Group 63" transform="translate(-10.458 -20.884)">
              <g id="Group_62" data-name="Group 62" clip-path="url(#clip-path-2)">
                <rect id="Rectangle_37" data-name="Rectangle 37" width="39.544" height="41.829" transform="translate(5.338 15.764)" fill="#fff"/>
              </g>
            </g>
          </g>
        </g>
      </g>
    </g>
  </g>
</svg>
